<svg width="34" height="33" viewBox="0 0 34 33" fill="none" xmlns="http://www.w3.org/2000/svg">
<path d="M16.7726 22.9178C3.20356 22.9178 0 27.2638 0 29.2728C0 31.2818 1.66887 33 3.72724 33H29.8179C31.8763 33 33.5452 31.2752 33.5452 29.2728C33.5452 27.2703 30.3416 22.9178 16.7726 22.9178Z" fill="#78B159"/>
<path d="M26.8402 25.6853C26.8402 27.1119 25.6829 27.6235 24.2563 27.6235C22.8297 27.6235 21.6723 27.1128 21.6723 25.6853L22.3181 19.8717C22.3181 18.4451 22.8287 18.5793 24.2563 18.5793C25.6829 18.5793 26.1944 18.4442 26.1944 19.8717L26.8402 25.6853Z" fill="#662113"/>
<path d="M32.4904 17.8273C28.2134 13.9743 26.4812 8.45705 24.256 8.45705C22.0309 8.45705 20.2986 13.9743 16.0226 17.8273C14.2251 19.4468 15.0814 20.3833 17.5451 20.196C19.7414 20.0292 21.7951 19.5055 24.256 19.5055C26.717 19.5055 28.7716 20.0301 30.9669 20.196C33.4306 20.3833 34.287 19.4459 32.4904 17.8273Z" fill="#5C913B"/>
<path d="M31.1013 16.3001C27.8148 13.131 25.968 8.59126 24.2563 8.59126C22.5455 8.59126 20.6986 13.131 17.4121 16.3001C14.8003 18.8188 20.8347 19.3835 24.2563 16.3001C27.6769 19.3835 33.7123 18.8188 31.1013 16.3001Z" fill="#3E721D"/>
<path d="M31.1013 13.733C27.8148 10.7717 25.968 6.53108 24.2563 6.53108C22.5455 6.53108 20.6986 10.7717 17.4121 13.733C14.8003 16.0859 20.8347 16.6133 24.2563 13.733C27.6769 16.6133 33.7123 16.0849 31.1013 13.733Z" fill="#5C913B"/>
<path d="M29.5998 11.6302C27.0346 9.31836 25.5921 6.00764 24.2559 6.00764C22.9206 6.00764 21.4782 9.31836 18.912 11.6302C16.8732 13.4668 21.5835 13.8796 24.2559 11.6302C26.9274 13.8786 31.6386 13.4668 29.5998 11.6302Z" fill="#3E721D"/>
<path d="M29.5998 9.70556C27.0346 7.39374 25.5921 4.08302 24.2559 4.08302C22.9206 4.08302 21.4782 7.39374 18.912 9.70556C16.8732 11.5422 21.5835 11.9549 24.2559 9.70556C26.9274 11.9549 31.6386 11.5431 29.5998 9.70556Z" fill="#5C913B"/>
<path d="M28.5682 7.99762C26.4978 6.13214 25.3339 3.46064 24.2558 3.46064C23.1777 3.46064 22.0139 6.13214 19.9434 7.99762C18.2978 9.48013 22.0996 9.81279 24.2558 7.99762C26.412 9.81279 30.2147 9.48013 28.5682 7.99762Z" fill="#3E721D"/>
<path d="M28.5682 6.54962C26.4978 4.68414 25.3339 2.01264 24.2558 2.01264C23.1777 2.01264 22.0139 4.68414 19.9434 6.54962C18.2978 8.03213 22.0996 8.36479 24.2558 6.54962C26.412 8.36479 30.2147 8.03213 28.5682 6.54962Z" fill="#5C913B"/>
<path d="M27.5381 4.41763C25.9633 2.99848 25.0772 0.965273 24.2562 0.965273C23.4363 0.965273 22.5501 2.99848 20.9744 4.41763C19.7221 5.54605 22.6153 5.79857 24.2562 4.41763C25.8972 5.7995 28.7904 5.54605 27.5381 4.41763Z" fill="#3E721D"/>
<path d="M27.5381 3.45236C25.9633 2.03321 25.0772 0 24.2562 0C23.4363 0 22.5501 2.03321 20.9744 3.45236C19.7221 4.58078 22.6153 4.8333 24.2562 3.45236C25.8972 4.8333 28.7904 4.58078 27.5381 3.45236Z" fill="#5C913B"/>
<path d="M14.0712 30.2046C13.6761 30.2046 13.3239 29.9559 13.1916 29.5841L8.52133 16.508C8.41883 16.2219 8.46263 15.9228 8.63781 15.6731C8.81299 15.4261 9.09812 15.2957 9.40189 15.2957H20.3591C20.7327 15.2957 21.071 15.5007 21.2182 15.8445L26.8221 28.9113C26.946 29.2002 26.9162 29.5272 26.7438 29.7891C26.5686 30.0518 26.276 30.2046 25.962 30.2046H14.0712Z" fill="#F4900C"/>
<path d="M3.79712 30.2046C3.4831 30.2046 3.18958 30.0461 3.0172 29.7852C2.84481 29.5225 2.81593 29.1907 2.93892 28.9019L8.54656 15.8174C8.69285 15.4745 9.03203 15.2518 9.40476 15.2518C9.77841 15.2518 10.1176 15.4754 10.2639 15.8174L15.8715 28.901C15.9955 29.1907 15.9647 29.5215 15.7923 29.7843C15.6199 30.0461 15.3264 30.2046 15.0124 30.2046H3.79712Z" fill="#FFCC4D"/>
<path d="M9.40194 17.5656L7.53273 30.2047H11.2693L9.40194 17.5656Z" fill="#292F33"/>
<path d="M13.1637 29.1675L13.5811 30.2046H11.2693L13.1637 29.1675ZM5.63932 29.1675L5.22187 30.2046H7.53276L5.63932 29.1675Z" fill="#FFAC33"/>
<path d="M11.2694 30.2045C11.2694 30.2045 12.9681 29.7712 13.7983 29.0043L9.40206 17.5654L11.2694 30.2045ZM7.53285 30.2045C7.53285 30.2045 5.83416 29.7712 5.00392 29.0043L9.40113 17.5645L7.53285 30.2045Z" fill="#FFE8B6"/>
<path d="M12.6959 4.69639C12.6791 4.69639 12.6642 4.70198 12.6474 4.70198C12.6791 4.54916 12.6959 4.39169 12.6959 4.22955C12.6959 2.94272 11.6532 1.90003 10.3664 1.90003C9.53613 1.90003 8.81305 2.33705 8.40026 2.99118C8.14215 2.89241 7.86447 2.83277 7.57095 2.83277C6.38289 2.83277 5.41381 3.72451 5.27031 4.87343C5.00754 4.76814 4.72706 4.69639 4.42609 4.69639C3.13926 4.69639 2.09656 5.73909 2.09656 7.02592C2.09656 8.31275 3.13926 9.35544 4.42609 9.35544H12.6959C13.9827 9.35544 15.0254 8.31275 15.0254 7.02592C15.0254 5.73909 13.9827 4.69639 12.6959 4.69639Z" fill="#E1E8ED"/>
</svg>
