<svg width="59" height="59" viewBox="0 0 59 59" fill="none" xmlns="http://www.w3.org/2000/svg">
<path d="M1.00568 12.4034C1.00568 9.38053 2.20651 6.48148 4.34399 4.34399C6.48148 2.20651 9.38053 1.00568 12.4034 1.00568H46.5965C49.6194 1.00568 52.5184 2.20651 54.6559 4.34399C56.7934 6.48148 57.9942 9.38053 57.9942 12.4034V46.5965C57.9942 49.6194 56.7934 52.5184 54.6559 54.6559C52.5184 56.7934 49.6194 57.9942 46.5965 57.9942H12.4034C9.38053 57.9942 6.48148 56.7934 4.34399 54.6559C2.20651 52.5184 1.00568 49.6194 1.00568 46.5965V12.4034Z" stroke="white" stroke-width="2" stroke-linecap="round" stroke-linejoin="round"/>
<path d="M19.527 26.6505C23.4612 26.6505 26.6505 23.4612 26.6505 19.5269C26.6505 15.5927 23.4612 12.4034 19.527 12.4034C15.5927 12.4034 12.4034 15.5927 12.4034 19.5269C12.4034 23.4612 15.5927 26.6505 19.527 26.6505Z" stroke="white" stroke-width="2" stroke-linecap="round" stroke-linejoin="round"/>
<path d="M36.6976 31.2695L12.4034 57.9943H46.9755C49.8978 57.9943 52.7005 56.8334 54.7669 54.767C56.8333 52.7006 57.9942 49.8979 57.9942 46.9756V46.5966C57.9942 45.2688 57.4956 44.7587 56.598 43.7757L45.1148 31.2524C44.5796 30.6686 43.9286 30.2028 43.2033 29.8846C42.4781 29.5665 41.6944 29.403 40.9024 29.4046C40.1104 29.4062 39.3275 29.5729 38.6035 29.894C37.8795 30.2151 37.2304 30.6836 36.6976 31.2695V31.2695Z" stroke="white" stroke-width="2" stroke-linecap="round" stroke-linejoin="round"/>
</svg>
