<svg width="59" height="59" viewBox="0 0 59 59" fill="none" xmlns="http://www.w3.org/2000/svg">
<path d="M1.00568 12.4034C1.00568 9.38052 2.20651 6.48147 4.34399 4.34399C6.48147 2.20651 9.38052 1.00568 12.4034 1.00568H46.5965C49.6193 1.00568 52.5184 2.20651 54.6559 4.34399C56.7934 6.48147 57.9942 9.38052 57.9942 12.4034V46.5965C57.9942 49.6193 56.7934 52.5184 54.6559 54.6559C52.5184 56.7934 49.6193 57.9942 46.5965 57.9942H12.4034C9.38052 57.9942 6.48147 56.7934 4.34399 54.6559C2.20651 52.5184 1.00568 49.6193 1.00568 46.5965V12.4034Z" stroke="#A1ABC0" stroke-width="2" stroke-linecap="round" stroke-linejoin="round"/>
<path d="M19.5269 26.6505C23.4611 26.6505 26.6504 23.4612 26.6504 19.5269C26.6504 15.5927 23.4611 12.4034 19.5269 12.4034C15.5926 12.4034 12.4033 15.5927 12.4033 19.5269C12.4033 23.4612 15.5926 26.6505 19.5269 26.6505Z" stroke="#A1ABC0" stroke-width="2" stroke-linecap="round" stroke-linejoin="round"/>
<path d="M36.6975 31.2695L12.4033 57.9943H46.9754C49.8977 57.9943 52.7004 56.8334 54.7668 54.767C56.8332 52.7006 57.9941 49.8979 57.9941 46.9756V46.5966C57.9941 45.2688 57.4954 44.7587 56.5979 43.7757L45.1147 31.2524C44.5795 30.6686 43.9285 30.2028 43.2032 29.8846C42.4779 29.5665 41.6943 29.403 40.9023 29.4046C40.1103 29.4062 39.3274 29.5729 38.6034 29.894C37.8794 30.2151 37.2303 30.6836 36.6975 31.2695V31.2695Z" stroke="#A1ABC0" stroke-width="2" stroke-linecap="round" stroke-linejoin="round"/>
</svg>
