<svg width="31" height="31" viewBox="0 0 31 31" fill="none" xmlns="http://www.w3.org/2000/svg">
<g opacity="0.6">
<path d="M2.58325 7.74998C2.58325 6.37969 3.1276 5.06553 4.09653 4.09659C5.06547 3.12766 6.37963 2.58331 7.74992 2.58331H23.2499C24.6202 2.58331 25.9344 3.12766 26.9033 4.09659C27.8722 5.06553 28.4166 6.37969 28.4166 7.74998V23.25C28.4166 24.6203 27.8722 25.9344 26.9033 26.9034C25.9344 27.8723 24.6202 28.4166 23.2499 28.4166H7.74992C6.37963 28.4166 5.06547 27.8723 4.09653 26.9034C3.1276 25.9344 2.58325 24.6203 2.58325 23.25V7.74998Z" stroke="#A1ABC0" stroke-width="2" stroke-linecap="round" stroke-linejoin="round"/>
<path d="M10.9792 14.2083C12.7626 14.2083 14.2083 12.7626 14.2083 10.9792C14.2083 9.19575 12.7626 7.75 10.9792 7.75C9.19575 7.75 7.75 9.19575 7.75 10.9792C7.75 12.7626 9.19575 14.2083 10.9792 14.2083Z" stroke="#A1ABC0" stroke-width="2" stroke-linecap="round" stroke-linejoin="round"/>
<path d="M18.7628 16.3022L7.75 28.4167H23.4218C24.7465 28.4167 26.017 27.8905 26.9537 26.9538C27.8904 26.017 28.4167 24.7466 28.4167 23.4219V23.2501C28.4167 22.6481 28.1906 22.4169 27.7838 21.9713L22.5783 16.2944C22.3357 16.0298 22.0406 15.8186 21.7119 15.6744C21.3831 15.5302 21.0278 15.4561 20.6688 15.4568C20.3098 15.4575 19.9549 15.5331 19.6267 15.6786C19.2985 15.8242 19.0043 16.0366 18.7628 16.3022V16.3022Z" stroke="#A1ABC0" stroke-width="2" stroke-linecap="round" stroke-linejoin="round"/>
</g>
</svg>
