<svg width="110" height="110" viewBox="0 0 110 110" fill="none" xmlns="http://www.w3.org/2000/svg">
<path d="M1.00456 22.6027C1.00456 16.8745 3.28008 11.3809 7.33051 7.33051C11.3809 3.28008 16.8745 1.00456 22.6027 1.00456H87.3971C93.1253 1.00456 98.6189 3.28008 102.669 7.33051C106.72 11.3809 108.995 16.8745 108.995 22.6027V87.3971C108.995 93.1253 106.72 98.6189 102.669 102.669C98.6189 106.72 93.1253 108.995 87.3971 108.995H22.6027C16.8745 108.995 11.3809 106.72 7.33051 102.669C3.28008 98.6189 1.00456 93.1253 1.00456 87.3971V22.6027Z" stroke="white" stroke-width="2" stroke-linecap="round" stroke-linejoin="round"/>
<path d="M36.1015 49.6004C43.5567 49.6004 49.6004 43.5567 49.6004 36.1015C49.6004 28.6463 43.5567 22.6027 36.1015 22.6027C28.6463 22.6027 22.6027 28.6463 22.6027 36.1015C22.6027 43.5567 28.6463 49.6004 36.1015 49.6004Z" stroke="white" stroke-width="2" stroke-linecap="round" stroke-linejoin="round"/>
<path d="M68.6391 58.3532L22.6027 108.995H88.1152C93.653 108.995 98.9639 106.796 102.88 102.88C106.795 98.9641 108.995 93.6532 108.995 88.1154V87.3973C108.995 84.8811 108.05 83.9146 106.349 82.0518L84.5894 58.3208C83.5752 57.2145 82.3416 56.3318 80.9672 55.7289C79.5928 55.126 78.1079 54.8162 76.6071 54.8192C75.1063 54.8223 73.6226 55.1381 72.2507 55.7466C70.8788 56.3551 69.6488 57.2428 68.6391 58.3532V58.3532Z" stroke="white" stroke-width="2" stroke-linecap="round" stroke-linejoin="round"/>
</svg>
